# xmcd CD database file
#
# Track frame offsets:
#	150
#	11700
#	28102
#	45385
#	60307
#	76505
#	96432
#	109725
#	127802
#	143730
#	157357
#	176150
#	194157
#	213857
#	228662
#	251125
#	271450
#	292802
#	306882
#	328620
#
# Disc length: 4621 seconds
#
# Revision: 0
# Processed by: cddbd v1.5.1PL0 Copyright (c) Steve Scherf et al.
# Submitted via: CDex 1.51
#
DISCID=1f120b14
DTITLE=Parton, Ronstadt and Harris - Trio (1-11) Trio II (12-20)
DYEAR=1900
DGENRE=Country
TTITLE0=01-The Pain Of Loving You
TTITLE1=02-Making Plans
TTITLE2=03-To Know Him Is To Love Him
TTITLE3=04-Hobo's Meditation
TTITLE4=05-Wildflowers
TTITLE5=06-Telling Me Lies
TTITLE6=07-My Dear Companion
TTITLE7=08-Those Memories Of You
TTITLE8=09-I've Had Enough
TTITLE9=10-Rosewood Casket
TTITLE10=11-Farther Along
TTITLE11=01-Lover's Return
TTITLE12=02-High Sierra
TTITLE13=03-Do I Ever Cross Your Mind
TTITLE14=05-The Blue Train
TTITLE15=06-I Feel the Blues Movin' in
TTITLE16=07-You'll Never Be the Sun
TTITLE17=08-He Rode All the Way to Texas
TTITLE18=09-Feels Like Home
TTITLE19=10-When We're Gone, Long Gone
EXTD=
EXTT0=
EXTT1=
EXTT2=
EXTT3=
EXTT4=
EXTT5=
EXTT6=
EXTT7=
EXTT8=
EXTT9=
EXTT10=
EXTT11=
EXTT12=
EXTT13=
EXTT14=
EXTT15=
EXTT16=
EXTT17=
EXTT18=
EXTT19=
PLAYORDER=
